# xmcd
#
# Track frame offsets: 
#        150
#        19872
#        40494
#        55201
#        76243
#        100379
#        113301
#        135504
#        154402
#        173009
#        190489
#        210627
#
# Disc length: 3141 seconds
#
# Revision: 0
# Processed by: cddbd v1.5.2PL0 Copyright (c) Steve Scherf et al.
# Submitted via: ExactAudioCopy v0.99pb5
#
DISCID=9b0c430c
DTITLE=Килилл Комаров - Думая о тебе
DYEAR=2016
DGENRE=Blues
TTITLE0=Думая о тебе
TTITLE1=В твою честь
TTITLE2=Странный день
TTITLE3=Беспозвоночный блюз
TTITLE4=Ленинградское время
TTITLE5=Одиночество
TTITLE6=Не тот человек
TTITLE7=Дожить до весны
TTITLE8=На станции «Ночь»
TTITLE9=Песня Ханумана
TTITLE10=Любить Тебя
TTITLE11=Колыбельная
EXTD=
EXTT0=
EXTT1=
EXTT2=
EXTT3=
EXTT4=
EXTT5=
EXTT6=
EXTT7=
EXTT8=
EXTT9=
EXTT10=
EXTT11=
PLAYORDER=
